<svg width="21" height="21" viewBox="0 0 21 21" fill="none" xmlns="http://www.w3.org/2000/svg">
<g clip-path="url(#clip0_332_6709)">
<path d="M17.8325 7.49873L16.7562 9.11748C17.2753 10.1527 17.5294 11.3005 17.4958 12.458C17.4622 13.6155 17.1419 14.7466 16.5637 15.75H4.43625C3.68477 14.4463 3.37338 12.9352 3.54825 11.4407C3.72311 9.94612 4.37492 8.54771 5.40704 7.45273C6.43917 6.35776 7.79666 5.62452 9.27827 5.36172C10.7599 5.09892 12.2867 5.32054 13.6325 5.99373L15.2512 4.91748C13.6032 3.86067 11.6483 3.38711 9.69928 3.57255C7.75027 3.75799 5.91976 4.59172 4.50055 5.94037C3.08135 7.28902 2.15544 9.07467 1.87094 11.0117C1.58644 12.9487 1.95978 14.9252 2.93125 16.625C3.08395 16.8895 3.3032 17.1094 3.56723 17.2629C3.83125 17.4164 4.13085 17.4981 4.43625 17.5H16.555C16.8634 17.5012 17.1666 17.4209 17.4339 17.2673C17.7013 17.1136 17.9233 16.892 18.0775 16.625C18.8837 15.2284 19.2883 13.6362 19.2466 12.0242C19.2049 10.4122 18.7186 8.84301 17.8412 7.48998L17.8325 7.49873Z" fill="white"/>
<path d="M9.26625 13.4834C9.42878 13.6461 9.62178 13.7752 9.83423 13.8633C10.0467 13.9514 10.2744 13.9967 10.5044 13.9967C10.7344 13.9967 10.9621 13.9514 11.1745 13.8633C11.387 13.7752 11.58 13.6461 11.7425 13.4834L16.695 6.05469L9.26625 11.0072C9.10354 11.1697 8.97446 11.3627 8.8864 11.5752C8.79833 11.7876 8.753 12.0153 8.753 12.2453C8.753 12.4753 8.79833 12.703 8.8864 12.9155C8.97446 13.1279 9.10354 13.3209 9.26625 13.4834Z" fill="white"/>
</g>
<defs>
<clipPath id="clip0_332_6709">
<rect width="21" height="21" fill="white"/>
</clipPath>
</defs>
</svg>
