<svg width="20" height="20" viewBox="0 0 20 20" fill="none" xmlns="http://www.w3.org/2000/svg">
<path fill-rule="evenodd" clip-rule="evenodd" d="M2.17236 3.45173C2.17236 3.30965 2.2288 3.17339 2.32927 3.07292C2.42974 2.97246 2.566 2.91602 2.70808 2.91602H4.31522C4.43472 2.91605 4.55077 2.95603 4.64493 3.02961C4.73909 3.10319 4.80594 3.20614 4.83486 3.32209L5.26879 5.05887H17.7081C17.7895 5.0589 17.8698 5.07746 17.9429 5.11314C18.016 5.14883 18.08 5.20071 18.1301 5.26484C18.1802 5.32898 18.215 5.40368 18.232 5.48327C18.2489 5.56287 18.2474 5.64527 18.2277 5.72423L16.6206 12.1528C16.5917 12.2687 16.5248 12.3717 16.4306 12.4453C16.3365 12.5189 16.2204 12.5588 16.1009 12.5589H6.45808C6.33858 12.5588 6.22252 12.5189 6.12837 12.4453C6.03421 12.3717 5.96735 12.2687 5.93843 12.1528L3.89736 3.98744H2.70808C2.566 3.98744 2.42974 3.931 2.32927 3.83054C2.2288 3.73007 2.17236 3.59381 2.17236 3.45173ZM5.53665 6.1303L6.87593 11.4874H15.6831L17.0224 6.1303H5.53665ZM7.52951 14.7017C7.24535 14.7017 6.97282 14.8146 6.77189 15.0155C6.57096 15.2165 6.45808 15.489 6.45808 15.7732C6.45808 16.0573 6.57096 16.3298 6.77189 16.5308C6.97282 16.7317 7.24535 16.8446 7.52951 16.8446C7.81367 16.8446 8.08619 16.7317 8.28712 16.5308C8.48805 16.3298 8.60093 16.0573 8.60093 15.7732C8.60093 15.489 8.48805 15.2165 8.28712 15.0155C8.08619 14.8146 7.81367 14.7017 7.52951 14.7017ZM5.38665 15.7732C5.38665 15.2048 5.61241 14.6598 6.01428 14.2579C6.41614 13.8561 6.96118 13.6303 7.52951 13.6303C8.09783 13.6303 8.64287 13.8561 9.04473 14.2579C9.4466 14.6598 9.67236 15.2048 9.67236 15.7732C9.67236 16.3415 9.4466 16.8865 9.04473 17.2884C8.64287 17.6903 8.09783 17.916 7.52951 17.916C6.96118 17.916 6.41614 17.6903 6.01428 17.2884C5.61241 16.8865 5.38665 16.3415 5.38665 15.7732ZM15.0295 14.7017C14.7453 14.7017 14.4728 14.8146 14.2719 15.0155C14.071 15.2165 13.9581 15.489 13.9581 15.7732C13.9581 16.0573 14.071 16.3298 14.2719 16.5308C14.4728 16.7317 14.7453 16.8446 15.0295 16.8446C15.3137 16.8446 15.5862 16.7317 15.7871 16.5308C15.9881 16.3298 16.1009 16.0573 16.1009 15.7732C16.1009 15.489 15.9881 15.2165 15.7871 15.0155C15.5862 14.8146 15.3137 14.7017 15.0295 14.7017ZM12.8866 15.7732C12.8866 15.2048 13.1124 14.6598 13.5143 14.2579C13.9161 13.8561 14.4612 13.6303 15.0295 13.6303C15.5978 13.6303 16.1429 13.8561 16.5447 14.2579C16.9466 14.6598 17.1724 15.2048 17.1724 15.7732C17.1724 16.3415 16.9466 16.8865 16.5447 17.2884C16.1429 17.6903 15.5978 17.916 15.0295 17.916C14.4612 17.916 13.9161 17.6903 13.5143 17.2884C13.1124 16.8865 12.8866 16.3415 12.8866 15.7732Z" fill="#242424"/>
</svg>
