<svg width="24" height="24" viewBox="0 0 24 24" fill="none" xmlns="http://www.w3.org/2000/svg">
<path d="M22 12.667C21.9123 12.6675 21.8253 12.6507 21.7441 12.6176C21.6629 12.5844 21.589 12.5355 21.5267 12.4737L12 2.94037L2.47335 12.4737C2.34582 12.5829 2.18177 12.64 2.01398 12.6335C1.8462 12.627 1.68704 12.5575 1.56831 12.4387C1.44958 12.32 1.38002 12.1609 1.37354 11.9931C1.36706 11.8253 1.42413 11.6612 1.53335 11.5337L11.5334 1.53371C11.6583 1.40954 11.8272 1.33984 12.0034 1.33984C12.1795 1.33984 12.3484 1.40954 12.4733 1.53371L22.4733 11.5337C22.5651 11.6273 22.6272 11.7458 22.6519 11.8745C22.6767 12.0032 22.6629 12.1364 22.6124 12.2573C22.5619 12.3782 22.4769 12.4816 22.368 12.5545C22.2591 12.6273 22.1311 12.6665 22 12.667Z" fill="#999999"/>
<path d="M10 15.25H9.25V16V21.9167H5.33333C5.17862 21.9167 5.03025 21.8552 4.92086 21.7458C4.81146 21.6364 4.75 21.4881 4.75 21.3334V13.53L12.0015 6.25424L19.25 13.4846V21.3334C19.25 21.4881 19.1885 21.6364 19.0791 21.7458C18.9698 21.8552 18.8214 21.9167 18.6667 21.9167H14.75V16V15.25H14H10Z" stroke="#999999" stroke-width="1.5"/>
</svg>
