<svg width="21" height="21" viewBox="0 0 21 21" fill="none" xmlns="http://www.w3.org/2000/svg">
<path d="M6.125 9.625H7.875V11.375H6.125V9.625ZM18.375 5.25V17.5C18.375 18.4625 17.5875 19.25 16.625 19.25H4.375C3.40375 19.25 2.625 18.4625 2.625 17.5L2.63375 5.25C2.63375 4.2875 3.40375 3.5 4.375 3.5H5.25V1.75H7V3.5H14V1.75H15.75V3.5H16.625C17.5875 3.5 18.375 4.2875 18.375 5.25ZM4.375 7H16.625V5.25H4.375V7ZM16.625 17.5V8.75H4.375V17.5H16.625ZM13.125 11.375H14.875V9.625H13.125V11.375ZM9.625 11.375H11.375V9.625H9.625V11.375Z" fill="white"/>
<path d="M6.125 9.625H7.875V11.375H6.125V9.625ZM18.375 5.25V17.5C18.375 18.4625 17.5875 19.25 16.625 19.25H4.375C3.40375 19.25 2.625 18.4625 2.625 17.5L2.63375 5.25C2.63375 4.2875 3.40375 3.5 4.375 3.5H5.25V1.75H7V3.5H14V1.75H15.75V3.5H16.625C17.5875 3.5 18.375 4.2875 18.375 5.25ZM4.375 7H16.625V5.25H4.375V7ZM16.625 17.5V8.75H4.375V17.5H16.625ZM13.125 11.375H14.875V9.625H13.125V11.375ZM9.625 11.375H11.375V9.625H9.625V11.375Z" fill="white"/>
</svg>
