<svg width="21" height="21" viewBox="0 0 21 21" fill="none" xmlns="http://www.w3.org/2000/svg">
<g clip-path="url(#clip0_23_4238)">
<path d="M13.125 3.5V9.625H4.52375L4.0075 10.1413L3.5 10.6488V3.5H13.125ZM14 1.75H2.625C2.14375 1.75 1.75 2.14375 1.75 2.625V14.875L5.25 11.375H14C14.4813 11.375 14.875 10.9813 14.875 10.5V2.625C14.875 2.14375 14.4813 1.75 14 1.75ZM18.375 5.25H16.625V13.125H5.25V14.875C5.25 15.3563 5.64375 15.75 6.125 15.75H15.75L19.25 19.25V6.125C19.25 5.64375 18.8563 5.25 18.375 5.25Z" fill="#323232"/>
</g>
<defs>
<clipPath id="clip0_23_4238">
<rect width="21" height="21" fill="white"/>
</clipPath>
</defs>
</svg>
