<svg width="20" height="20" viewBox="0 0 20 20" fill="none" xmlns="http://www.w3.org/2000/svg">
<path d="M9.16675 1.66602C13.3067 1.66602 16.6667 5.02602 16.6667 9.16602C16.6667 13.306 13.3067 16.666 9.16675 16.666C5.02675 16.666 1.66675 13.306 1.66675 9.16602C1.66675 5.02602 5.02675 1.66602 9.16675 1.66602ZM9.16675 14.9993C12.3892 14.9993 15.0001 12.3885 15.0001 9.16602C15.0001 5.94268 12.3892 3.33268 9.16675 3.33268C5.94341 3.33268 3.33341 5.94268 3.33341 9.16602C3.33341 12.3885 5.94341 14.9993 9.16675 14.9993ZM16.2376 15.0585L18.5951 17.4152L17.4159 18.5943L15.0592 16.2368L16.2376 15.0585Z" fill="#242424"/>
</svg>
