<svg width="20" height="20" viewBox="0 0 20 20" fill="none" xmlns="http://www.w3.org/2000/svg">
<path d="M17.9687 16.3099L16.6667 4.05995C16.6667 3.2898 16.07 2.66602 15.3333 2.66602H10H4.66667C3.93 2.66602 3.33333 3.2898 3.33333 4.05995L2.03133 16.3099C2.012 16.4054 2 16.5037 2 16.6054C2 17.3756 2.59667 17.9993 3.33333 17.9993H10H16.6667C17.4033 17.9993 18 17.3756 18 16.6054C18 16.5037 17.988 16.4054 17.9687 16.3099ZM13.3333 6.08674V6.84783C13.3333 8.76938 11.838 10.3327 10 10.3327C8.162 10.3327 6.66667 8.76938 6.66667 6.84783V6.08674C6.27933 5.94317 6 5.55983 6 5.10541C6 4.52832 6.448 4.05995 7 4.05995C7.552 4.05995 8 4.52832 8 5.10541V6.84783C8 8.00062 8.89733 8.93874 10 8.93874C11.1027 8.93874 12 8.00062 12 6.84783V5.10541C12 4.52832 12.448 4.05995 13 4.05995C13.552 4.05995 14 4.52832 14 5.10541C14 5.55983 13.7207 5.94317 13.3333 6.08674Z" fill="white"/>
</svg>
